<svg version="1.2" baseProfile="tiny-ps" xmlns="http://www.w3.org/2000/svg" viewBox="0 0 1292 825" width="1292" height="825">
	<title>Playing games-svg</title>
	<style>
		tspan { white-space:pre }
		.shp0 { fill: #f4f4f4 } 
		.shp1 { fill: #b2b6bb } 
		.shp2 { fill: #61656d } 
		.shp3 { fill: #21252b } 
		.shp4 { fill: none;stroke: #21252b;stroke-width: 1.387 } 
		.shp5 { fill: #ffffff } 
		.shp6 { fill: #dddddd } 
		.shp7 { fill: #dadddf } 
		.shp8 { fill: #00968a } 
		.shp9 { opacity: 0.2;fill: #000000 } 
		.shp10 { fill: #868a91 } 
		.shp11 { fill: #966363 } 
		.shp12 { opacity: 0.302;fill: #000000 } 
		.shp13 { opacity: 0.149;fill: #000000 } 
		.shp14 { opacity: 0.302;fill: #ffffff } 
		.shp15 { opacity: 0.4;fill: #000000 } 
		.shp16 { opacity: 0.502;fill: #000000 } 
		.shp17 { fill: #fc9d9d } 
		.shp18 { fill: #3f4249 } 
		.shp19 { fill: #000000 } 
		.shp20 { fill: none;stroke: #868a91;stroke-width: 0.569 } 
		.shp21 { opacity: 0.4;fill: #ffffff } 
	</style>
	<path id="Layer" class="shp0" d="M433.3 0.9L1077.2 79.8C1093.4 81.8 1107.7 91.2 1115.9 105.3L1284.1 394.3C1289.3 403.2 1291.7 413.4 1291.1 423.7L1266.6 824L122.9 824L98.1 359.3C97.4 345.4 102.2 331.8 111.6 321.5L388.4 17.6C399.8 5.1 416.5 -1.1 433.3 0.9Z" />
	<path id="Layer" class="shp1" d="M1291.2 824.5L98.8 824.5C98.4 824.5 98 824 98 823.5C98 822.9 98.4 822.5 98.8 822.5L1291.2 822.5C1291.6 822.5 1292 823 1292 823.5C1292 824 1291.7 824.5 1291.2 824.5Z" />
	<path id="Layer" class="shp1" d="M773.4 42.6L773.4 119.7L771.5 119.7L771.5 42.4L773.4 42.6Z" />
	<path id="Layer" class="shp2" d="M796.2 132.1L818.4 136.9C822.2 137.8 825.3 140.6 826.6 144.3L832.3 161.1L711.4 161.1L717.1 144.3C718.3 140.5 721.5 137.7 725.3 136.9L747.5 132.1C751.8 131.2 755.2 127.8 756.1 123.4L761.6 97.1C762.6 92.3 766.8 88.8 771.8 88.8C776.7 88.8 781 92.3 782 97.1L787.5 123.4C788.4 127.8 791.8 131.2 796.2 132.1Z" />
	<path id="Layer" class="shp3" d="M810.1 135.1L818.4 136.9C822.2 137.8 825.3 140.6 826.6 144.3L832.3 161.1L818 161.1L813.2 139.7C812.7 137.8 811.6 136.2 810.1 135.1Z" />
	<path id="Layer" class="shp3" d="M770.7 88.9C771.1 88.8 771.4 88.8 771.8 88.8C776.7 88.8 781 92.3 782 97.1L787.5 123.4C788.2 126.6 790.2 129.3 793 130.9L788.7 130C784.4 129.1 781 125.7 780.1 121.3L774.6 95C774.1 92.5 772.7 90.4 770.7 88.9Z" />
	<path id="Layer" class="shp4" d="M719.9 153.2L819.6 153.2" />
	<path id="Layer" class="shp5" d="M364.84 137.25L496.74 137.25L496.74 305.25L364.84 305.25L364.84 137.25Z" />
	<path id="Layer" class="shp6" d="M382.44 154.15L479.14 154.15L479.14 288.35L382.44 288.35L382.44 154.15Z" />
	<path id="Layer" class="shp7" d="M500.5 305.2L496.7 305.2L496.7 137.2L500.5 137.2L500.5 305.2Z" />
	<path id="Layer" class="shp8" d="M393.7 218.7C393.7 207.1 403.1 197.7 414.7 197.7C426.3 197.7 435.7 207.1 435.7 218.7C435.7 230.3 426.3 239.7 414.7 239.7C403.1 239.7 393.7 230.3 393.7 218.7Z" />
	<path id="Layer" class="shp9" d="M427 273.4L448.8 239.6L470.7 273.8L427 273.4Z" />
	<path id="Layer" class="shp9" d="M419.6 168.79L464.9 168.79L464.9 214.09L419.6 214.09L419.6 168.79Z" />
	<path id="Layer" class="shp5" d="M988.1 224.3L920.3 224.3L920.3 121.5L988.1 121.5L988.1 224.3Z" />
	<path id="Layer" class="shp1" d="M988 121.53L990.2 121.53L990.2 224.33L988 224.33L988 121.53Z" />
	<path id="Layer" class="shp1" d="M978.8 214.4L929.5 214.4L929.5 131.5L978.8 131.5L978.8 214.4Z" />
	<path id="Layer" class="shp10" d="M929.5 177.4L957.8 164.6L978.8 214.4L929.5 214.4L929.5 177.4Z" />
	<path id="Layer" class="shp6" d="M954.1 147.3C954.1 143.27 957.37 140 961.4 140C965.43 140 968.7 143.27 968.7 147.3C968.7 151.33 965.43 154.6 961.4 154.6C957.37 154.6 954.1 151.33 954.1 147.3Z" />
	<path id="Layer" class="shp5" d="M1077.8 277.4L1010 277.4L1010 174.6L1077.8 174.6L1077.8 277.4Z" />
	<path id="Layer" class="shp1" d="M1077.71 174.62L1079.91 174.62L1079.91 277.42L1077.71 277.42L1077.71 174.62Z" />
	<path id="Layer" class="shp1" d="M1068.5 267.5L1019.2 267.5L1019.2 184.6L1068.5 184.6L1068.5 267.5Z" />
	<path id="Layer" class="shp10" d="M1068.5 267.5L1048.6 267.5L1034.1 201.6L1068.5 201.6L1068.5 267.5Z" />
	<path id="Layer" class="shp8" d="M1019.2 214.6L1029.8 243.4L1019.2 253.7L1019.2 214.6Z" />
	<path id="Layer" class="shp10" d="M544 822.5L386 822.5L386 517.4C386 511.5 390.8 506.7 396.7 506.7L533.3 506.7C539.2 506.7 544 511.5 544 517.4L544 822.5Z" />
	<path id="Layer" class="shp1" d="M421.1 822.5L350.7 822.5L350.7 517.4C350.7 511.5 355.5 506.7 361.4 506.7L410.4 506.7C416.3 506.7 421.1 511.5 421.1 517.4L421.1 822.5L421.1 822.5Z" />
	<path id="Layer" class="shp1" d="M525.4 367C525.4 361.1 530.1 356.4 536 356.4L1132.6 356.4L1132.6 609.6L525.4 609.6L525.4 367Z" />
	<path id="Layer" class="shp10" d="M525.42 608.05L1085.12 608.05L1085.12 609.55L525.42 609.55L525.42 608.05Z" />
	<path id="Layer" class="shp1" d="M421.14 680.06L421.14 609.66L1028.54 609.66L1028.54 680.06L421.14 680.06Z" />
	<path id="Layer" class="shp10" d="M1072.6 543.4L1072.6 367C1072.6 361.1 1077.4 356.3 1083.3 356.3L1132.3 356.3C1138.2 356.3 1143 361.1 1143 367L1143 543.4C1143 549.3 1138.2 554.1 1132.3 554.1L1083.3 554.1C1077.4 554.1 1072.6 549.3 1072.6 543.4Z" />
	<path id="Layer" class="shp3" d="M664.9 279.2C664.9 269.37 672.87 261.4 682.7 261.4C692.53 261.4 700.5 269.37 700.5 279.2C700.5 289.03 692.53 297 682.7 297C672.87 297 664.9 289.03 664.9 279.2Z" />
	<path id="Layer" class="shp8" d="M693.9 293C689.9 296.2 684.6 297.7 679.1 296.6C669.5 294.6 663.3 285.2 665.2 275.5C665.3 274.9 665.5 274.2 665.7 273.6C673.9 274.2 688.3 280.2 693.9 293Z" />
	<path id="Layer" class="shp3" d="M683.8 314.1C700.9 313.5 715.2 328.5 715.9 347.7C716.6 366.8 703.3 382.8 686.2 383.4C675.5 383.7 680.4 372.7 679.7 353.5C679 334.3 680.6 330.6 683.8 314.1Z" />
	<path id="Layer" class="shp3" d="M641.1 384.93C624.03 384.76 610.34 371.14 610.5 354.52C610.67 337.9 624.64 324.56 641.71 324.74C658.77 324.91 672.47 338.53 672.3 355.15C672.13 371.77 658.16 385.11 641.1 384.93Z" />
	<path id="Layer" class="shp11" d="M715.9 395.4L659.4 429.4L612.2 378.7L640.4 381.9C643.2 382.2 645.7 380.1 645.8 377.3L646.3 369.8L648.3 338.6L679.5 340.4L685.1 381.2C685.5 384 687.4 386.2 690.1 387.1L715.9 395.4Z" />
	<path id="Layer" class="shp11" d="M630.2 348.1L629.1 316.9C628.9 311.2 633.4 306.4 639.1 306.2L670.4 305.1C674.8 304.9 678.4 308.4 678.6 312.8L679.7 346.3C680.1 359.5 669.8 370.5 656.6 371L654.8 371.1C641.6 371.6 630.5 361.3 630.2 348.1Z" />
	<path id="Layer" class="shp5" d="M653.5 354.8L652.6 356.1C650.3 359.6 645.3 359.7 642.9 356.2L641.9 354.7C641.7 354.4 641.9 354 642.3 354L653.1 354C653.4 354 653.7 354.4 653.5 354.8Z" />
	<path id="Layer" class="shp3" d="M652.9 337.5C652.9 336.06 654.06 334.9 655.5 334.9C656.94 334.9 658.1 336.06 658.1 337.5C658.1 338.94 656.94 340.1 655.5 340.1C654.06 340.1 652.9 338.94 652.9 337.5Z" />
	<path id="Layer" class="shp5" d="M653.9 338.7C653.9 338.37 654.17 338.1 654.5 338.1C654.83 338.1 655.1 338.37 655.1 338.7C655.1 339.03 654.83 339.3 654.5 339.3C654.17 339.3 653.9 339.03 653.9 338.7Z" />
	<path id="Layer" class="shp3" d="M632.9 339.4C632.9 337.96 634.06 336.8 635.5 336.8C636.94 336.8 638.1 337.96 638.1 339.4C638.1 340.84 636.94 342 635.5 342C634.06 342 632.9 340.84 632.9 339.4Z" />
	<path id="Layer" class="shp5" d="M633.8 340.4C633.8 340.07 634.07 339.8 634.4 339.8C634.73 339.8 635 340.07 635 340.4C635 340.73 634.73 341 634.4 341C634.07 341 633.8 340.73 633.8 340.4Z" />
	<g id="Layer" style="opacity: 0.302">
		<path id="Layer" class="shp12" d="M641.8 347C641.8 345.3 643.2 343.9 644.9 343.9C645.4 343.9 645.7 344.2 645.7 344.7C645.7 345.2 645.3 345.5 644.9 345.5C644 345.5 643.3 346.2 643.3 347.1C643.3 348 644 348.7 644.9 348.7L648.4 348.7C648.9 348.7 649.2 349 649.2 349.5C649.2 350 648.8 350.3 648.4 350.3L644.9 350.3C643.2 350.3 641.8 348.9 641.8 347Z" />
	</g>
	<path id="Layer" class="shp3" d="M619.9 333.1C623.5 330.2 621.7 325.2 621.7 325.2C620.9 323.1 620.2 320.8 620 318.3C619.2 310.3 623.3 306.9 625.5 305.7C626.3 305.3 626.8 304.4 626.8 303.5C626.6 278.5 660.1 270 679.1 283.4C690.6 291.5 693.8 301.4 693.6 310.8C693.6 310.8 693.3 315 697.2 316.7L692.7 319C691.4 326.1 688.9 332.6 687.6 337.6C687 339.8 682.5 331.3 680.6 330.5C680.4 330.4 678.9 332.9 677.9 334.5C677.3 335.5 675.8 335.5 675.3 334.4C673.7 330.3 672.8 325.9 672.6 321.5L672.5 317.5C663.7 316.9 659.8 308.9 659.8 308.9C652 319.1 637.5 319.2 631.6 318.7C630.2 318.6 629 319.7 629.1 321.1L629.6 336.1C629.6 336.1 627.2 334.1 624.8 330.6L621.1 333.7L619.9 333.1Z" />
	<path id="Layer" class="shp11" d="M676.7 347.8L678.3 335.4C680.4 324 694.4 326.2 691.9 337.5C689.4 348.8 678 347.8 678 347.8L676.7 347.8Z" />
	<path id="Layer" class="shp12" d="M688.5 332.6C688.3 333 687.8 333 687.5 332.8C686.6 332.2 685.9 332 685.2 332.1C684.6 332.2 684 332.7 683.4 333.6C682.7 334.7 682.4 336.8 682.4 337.2C682.4 337.2 682.4 337.2 682.3 338.5C682.3 339.6 680.7 339.3 680.8 338.4L680.9 337.2C680.9 335.6 681.4 334 682.2 332.8C683 331.6 683.9 330.8 685 330.6C686.1 330.3 687.3 330.7 688.5 331.5C688.8 331.7 688.9 332.2 688.5 332.6Z" />
	<path id="Layer" fill-rule="evenodd" class="shp5" d="M632.6 328.8C635.9 328.8 638.8 330.3 640.7 332.7C643.4 331.5 646 332 647.1 332.3C648.8 328.9 652.3 326.6 656.4 326.6C662.1 326.6 666.8 331.3 666.8 337C666.8 342.7 662.1 347.4 656.4 347.4C650.7 347.4 646 342.7 646 337C646 335.8 646.2 334.7 646.6 333.6C645.6 333.3 643.6 333 641.5 333.9C642.4 335.5 643 337.3 643 339.3C643 345 638.3 349.7 632.6 349.7C626.9 349.7 622.2 345 622.2 339.3C622.2 333.5 626.9 328.9 632.6 328.8ZM656.4 346.1C661.4 346.1 665.5 342 665.5 337C665.5 332 661.4 327.9 656.4 327.9C651.4 327.9 647.3 332 647.3 337C647.3 342 651.4 346 656.4 346.1ZM632.6 348.4C637.6 348.4 641.7 344.3 641.7 339.3C641.7 334.3 637.6 330.2 632.6 330.2C627.6 330.2 623.5 334.3 623.5 339.3C623.5 344.3 627.6 348.4 632.6 348.4Z" />
	<path id="Layer" class="shp8" d="M678.8 343.8C678.8 342.53 679.83 341.5 681.1 341.5C682.37 341.5 683.4 342.53 683.4 343.8C683.4 345.07 682.37 346.1 681.1 346.1C679.83 346.1 678.8 345.07 678.8 343.8Z" />
	<path id="Layer" class="shp13" d="M680.3 345.7C681.7 345.7 682.8 344.6 682.8 343.2C682.8 342.7 682.7 342.3 682.4 341.9C683 342.3 683.4 343 683.4 343.8C683.4 345.1 682.4 346.1 681.1 346.1C680.6 346.1 680.2 345.9 679.8 345.7C680 345.7 680.2 345.7 680.3 345.7Z" />
	<path id="Layer" class="shp3" d="M633.8 322.5C633.7 322.1 634 321.8 634.4 321.8C652.9 321 659.7 308.9 659.8 308.8C660 308.4 660.4 308.3 660.7 308.5C661.1 308.7 661.2 309.1 661 309.4C660.9 309.6 659.1 312.7 655 316C651.2 319.1 644.6 322.7 634.5 323.2C634.1 323.2 633.8 322.9 633.8 322.5Z" />
	<path id="Layer" class="shp13" d="M680.3 355.4L676.5 347.8L679.7 347.8L680.3 355.4Z" />
	<path id="Layer" class="shp13" d="M670.4 367.8C668.3 369.3 664.9 371.1 660.2 372C657.9 374 653.8 376.7 648.5 377C647.6 377.1 646.7 377.1 645.8 377L646.3 369.9C649.2 370.9 652.4 371.3 655.7 371.1C656.6 371.1 657.5 371 658.4 370.9C658.7 370.9 659.1 370.8 659.4 370.8C659.5 370.8 659.5 370.8 659.6 370.8C660.2 370.7 660.7 370.6 661.2 370.5C661.4 370.5 661.6 370.4 661.8 370.3C665.3 369.4 667.9 367.9 669.6 366.8C669.9 366.6 670.3 366.7 670.5 367C670.8 367.2 670.7 367.6 670.4 367.8Z" />
	<path id="Layer" class="shp1" d="M437.3 581.3C431.4 566 442.7 549.6 459.1 549.6L627.7 549.6L643.2 609.4L502.5 609.4C523.9 655.1 526.9 682.2 532.6 747L504.1 754.1L437.3 581.3Z" />
	<path id="Layer" class="shp8" d="M437.3 581.3C431.4 566 442.7 549.6 459.1 549.6L627.7 549.6L643.2 609.4L502.5 609.4C523.9 655.1 526.9 682.2 532.6 747L504.1 754.1L437.3 581.3Z" />
	<path id="Layer" class="shp14" d="M437.3 581.3C431.4 566 442.7 549.6 459.1 549.6L627.7 549.6L643.2 609.4L502.5 609.4C523.9 655.1 526.9 682.2 532.6 747L504.1 754.1L437.3 581.3Z" />
	<path id="Layer" class="shp9" d="M472.8 549.6L627.8 549.6L643.3 609.4L527.4 609.4L502.6 609.4C524 655.1 527 682.2 532.7 747L518.8 747L460 568.9C456.9 559 462.9 549.5 472.8 549.5L472.8 549.6Z" />
	<path id="Layer" class="shp8" d="M475.3 567.9C479.8 556.8 490.7 549.5 502.7 549.5L701.3 549.5L700.9 572.7C700.6 593 684.1 609.3 663.8 609.3L518.3 609.3C502 659.9 492 686.6 449.8 746.7L415.7 733.1L475.3 567.9Z" />
	<path id="Layer" class="shp14" d="M475.3 567.9C479.8 556.8 490.7 549.5 502.7 549.5L701.3 549.5L700.9 572.7C700.6 593 684.1 609.3 663.8 609.3L518.3 609.3C502 659.9 492 686.6 449.8 746.7L415.7 733.1L475.3 567.9Z" />
	<path id="Layer" class="shp9" d="M449.8 746.7L437.5 741.8L493.5 591.5C498.1 580.4 508.9 573.1 520.9 573.1L615.7 573.1C627.6 573.1 639.2 569.5 649 562.9L701.2 573.1C700.7 593.2 684.3 609.3 664.1 609.3L518.4 609.3C500.8 665.1 488.6 691.7 449.8 746.7Z" />
	<path id="Layer" class="shp11" d="M445.6 753.2L421.2 795.9C419 799.1 417.8 802.9 417.6 806.8L417.5 810C417.2 814.6 413.5 818.5 408.8 818.6L408.7 818.6L367.4 819.3L367.1 819.3C366.7 820 366 820.5 365.1 820.5C364.5 820.5 363.9 820.3 363.5 819.9C363.2 819.6 362.8 819.6 362.5 819.8C361.9 820.2 361.1 820.5 360.4 820.5C359.7 820.5 359 820.2 358.6 819.7C358.3 819.4 357.9 819.3 357.6 819.6C356.9 820.2 356 820.6 355.1 820.6C354.2 820.6 353.4 820.2 352.9 819.6C352.8 819.5 352.7 819.4 352.6 819.4L352 819.4C351.9 819.4 351.9 819.4 351.8 819.5C351.1 820.2 350.1 820.6 349.2 820.6C348.2 820.6 347.3 820.1 346.8 819.4C346.8 819.4 343.3 813.6 346.3 812.6L377.4 802.2C383.6 800.2 387.5 798.8 391 793.4L413.9 741L445.6 753.2Z" />
	<path id="Layer" class="shp13" d="M344.8 815C345.7 815 346.6 814.6 347.3 814C347.6 813.7 348 813.8 348.3 814.1C348.7 814.6 349.4 814.9 350.1 814.9C350.8 814.9 351.6 814.6 352.2 814.2C352.5 814 352.9 814 353.1 814.3C353.5 814.7 354.1 815 354.7 815C355.6 815 356.3 814.5 356.7 813.8L357 813.8L377.4 813.5L378 801.9C378 801.9 382.4 808.6 388.5 813.4L398.3 813.1C402.3 813 405.8 811.5 407.5 808.4L431.9 762.3C433 760.1 432.5 757.5 430.7 755.9L413.4 741L444.9 753.2L420.9 795.4C418.5 799 417.1 803.2 416.9 807.5L416.8 810.1C416.6 814.8 412.8 818.6 408 818.7L366.7 819.4L366.4 819.4C366 820.1 365.3 820.6 364.4 820.6C363.8 820.6 363.2 820.3 362.8 819.9C362.6 819.7 362.1 819.6 361.9 819.8C361.3 820.2 360.5 820.5 359.8 820.5C359.1 820.5 358.4 820.2 358 819.7C357.7 819.4 357.3 819.3 357 819.6C356.3 820.2 355.4 820.6 354.5 820.6C353.6 820.6 352.8 820.2 352.3 819.6C352.2 819.5 352.1 819.4 352 819.4L351.4 819.4C351.3 819.4 351.2 819.5 351.2 819.5C350.5 820.1 349.5 820.6 348.6 820.6C347.6 820.6 346.8 820.1 346.2 819.4C346.3 819.4 343.9 815 344.8 815Z" />
	<path id="Layer" class="shp3" d="M339.9 818.4C340.1 814.1 342.8 810.3 346.9 808.9L375.6 800.1C376.7 799.7 377.8 800.3 378.1 801.4C379.2 805 381.9 812.9 387.3 818.4L416 818.4C417.1 818.4 418 819.3 418 820.4C418 821.5 417.1 822.4 416 822.4L341.9 822.4C340.8 822.4 339.9 821.5 339.9 820.4L339.9 818.4Z" />
	<path id="Layer" class="shp15" d="M339.9 818.4C340 815 341.8 811.9 344.6 810.1C341 812.7 345.3 815.2 350.5 815C377 813.8 380.4 813.8 383.5 813.5C383.4 813.4 383.4 813.3 383.4 813.2C384.5 815 385.9 816.8 387.4 818.4L416 818.4C417.1 818.4 418 819.3 418 820.4C418 821.5 417.1 822.4 416 822.4L341.9 822.4C340.8 822.4 339.9 821.5 339.9 820.4L339.9 818.4Z" />
	<path id="Layer" class="shp15" d="M339.9 817.8L386.8 817.8L387.4 818.4L339.9 818.4L339.9 817.8Z" />
	<path id="Layer" class="shp11" d="M533 746.8L540.6 795.8L543.8 806C545.2 810.8 542.9 816 538.3 817.8C537.1 818.3 535.9 818.6 534.7 818.6C534.6 818.6 536.8 818.6 536.8 818.6L493.3 819.3L493 819.3C492.6 820 491.9 820.5 491 820.5C490.4 820.5 489.8 820.3 489.4 819.9C489.1 819.6 488.7 819.6 488.4 819.8C487.8 820.2 487 820.5 486.3 820.5C485.6 820.5 484.9 820.2 484.5 819.7C484.2 819.4 483.8 819.3 483.5 819.6C482.8 820.2 481.9 820.6 481 820.6C480.1 820.6 479.3 820.2 478.8 819.6C478.7 819.5 478.6 819.4 478.5 819.4L477.9 819.4C477.8 819.4 477.8 819.4 477.7 819.5C477 820.2 476 820.6 475.1 820.6C474.1 820.6 473.2 820.1 472.7 819.4C472.7 819.4 469.2 813.6 472.2 812.6L503.3 802.2C507.7 800.7 511.5 800.4 514.5 798.2C516.6 796.7 517.5 794 516.7 791.6L501.8 748.1L533 746.8Z" />
	<path id="Layer" class="shp13" d="M538.1 818C536.9 818.5 535.7 818.8 534.5 818.8C534.4 818.8 536.6 818.8 536.6 818.8L493.1 819.5L492.8 819.5C492.4 820.2 491.7 820.7 490.8 820.7C490.2 820.7 489.6 820.4 489.2 820C489 819.7 488.6 819.7 488.3 819.9C487.7 820.3 486.9 820.6 486.2 820.6C485.5 820.6 484.8 820.3 484.4 819.8C484.1 819.5 483.7 819.4 483.4 819.7C482.7 820.3 481.8 820.7 480.9 820.7C480 820.7 479.2 820.3 478.7 819.7C478.6 819.6 478.5 819.5 478.4 819.5L477.8 819.5C477.7 819.5 477.7 819.5 477.6 819.6C476.9 820.3 475.9 820.7 475 820.7C474 820.7 473.1 820.2 472.6 819.5C472.6 819.5 472 818.5 471.5 817.2C472 817 472.4 816.7 472.8 816.4C472.8 816.4 472.9 816.3 473 816.3L473.6 816.3C473.7 816.3 473.8 816.4 473.9 816.5C474.4 817.1 475.2 817.5 476.1 817.5C477 817.5 477.9 817.1 478.6 816.5C478.9 816.2 479.3 816.3 479.6 816.6C480 817.1 480.7 817.4 481.4 817.4C482.1 817.4 482.9 817.1 483.5 816.7C483.7 816.5 484.2 816.6 484.4 816.8C484.8 817.2 485.4 817.5 486 817.5C486.9 817.5 487.6 817 488 816.3L488.3 816.3L531.8 815.6C531.9 815.6 529.7 815.6 529.7 815.6C530.9 815.5 532.1 815.3 533.3 814.8C537.9 813 540.2 807.7 538.7 803L535.5 792.8L526.5 763.5C524.6 757.2 519.4 752.4 513 750.8L502.2 748.2L532.7 747L540.3 796L543.5 806.2C545 810.9 542.7 816.1 538.1 818Z" />
	<path id="Layer" class="shp3" d="M465.8 818.4C466 814.1 468.7 810.3 472.8 808.9L501.5 800.1C502.6 799.7 503.7 800.3 504 801.4C505.1 805 507.8 812.9 513.2 818.4L541.8 818.4C542.9 818.4 543.8 819.3 543.8 820.4C543.8 821.5 542.9 822.4 541.8 822.4L467.7 822.4C466.6 822.4 465.7 821.5 465.7 820.4L465.7 818.4L465.8 818.4Z" />
	<path id="Layer" class="shp15" d="M465.8 818.4C465.9 815 467.7 811.9 470.5 810.1C466.9 812.7 471.2 815.2 476.4 815C502.9 813.8 506.3 813.8 509.4 813.5C509.3 813.4 509.3 813.3 509.3 813.2C510.4 815 511.8 816.8 513.3 818.4L541.9 818.4C543 818.4 543.9 819.3 543.9 820.4C543.9 821.5 543 822.4 541.9 822.4L467.8 822.4C466.7 822.4 465.8 821.5 465.8 820.4L465.8 818.4Z" />
	<path id="Layer" class="shp15" d="M465.8 817.8L512.7 817.8L513.3 818.4L465.8 818.4L465.8 817.8Z" />
	<g id="Layer" style="opacity: 0.149">
		<path id="Layer" class="shp13" d="M528.6 809.1C528.2 809.1 527.8 808.6 527.9 808.2C527.9 807.8 528.3 807.4 528.8 807.5C530.9 807.7 532.5 807.1 533.3 805.8C534.1 804.6 534 802.8 533 801.3C532.7 801 532.8 800.4 533.2 800.2C533.5 799.9 534.1 800 534.3 800.4C535.6 802.4 535.7 804.9 534.6 806.7C533.6 808.3 531.8 809.2 529.6 809.2C529.2 809.2 528.9 809.1 528.6 809.1Z" />
	</g>
	<g id="Layer" style="opacity: 0.149">
		<path id="Layer" class="shp13" d="M402.5 811.2C402.1 811.2 401.7 810.7 401.8 810.3C401.8 809.9 402.2 809.5 402.7 809.6C404.8 809.8 406.4 809.2 407.2 807.9C408 806.7 407.9 804.9 406.9 803.4C406.6 803.1 406.7 802.5 407.1 802.3C407.4 802 408 802.1 408.2 802.5C409.5 804.5 409.6 807 408.5 808.8C407.5 810.4 405.7 811.3 403.5 811.3C403.2 811.3 402.8 811.2 402.5 811.2Z" />
	</g>
	<path id="Layer" class="shp9" d="M494 674.3C494 674.3 506.7 646.6 511.6 630.2C511.6 630.2 515 638.8 516.5 643.7C516.5 643.7 505.2 675.6 497.9 685.5L494 674.3Z" />
	<path id="Layer" class="shp3" d="M751.6 440.1L748.5 447.9L715.9 448.4L705.8 505.8C702.2 526.1 702.8 546.9 707.5 566.9L708.8 572.3C711.5 583.7 699.1 592.7 689.1 586.6L658.2 567.9C638.3 555.9 615.5 549.5 592.3 549.5L586.1 549.5L602.7 525.2C608.9 516.1 612.5 505.5 613 494.5L614 473.3C614.1 471.6 613.7 469.9 613 468.3L609.9 461.6C605.3 451.9 605.9 440.5 611.3 431.3L621.6 413.9L617.3 421.2L582.7 408L582.7 397.5L582.7 373.5L636.1 381.5L637.1 383.4C648.3 405.3 676.6 411.8 696.2 397L703.6 391.5L733.3 401.2C749.5 406.4 757.9 424.2 751.6 440.1Z" />
	<path id="Layer" class="shp8" d="M637.7 496.6L637.2 496.1C638.5 494.8 638.5 492.8 637.2 491.5L637.7 491C639 492.3 641 492.3 642.3 491L642.8 491.5C641.5 492.8 641.5 494.8 642.8 496.1L642.3 496.6C641 495.3 639 495.3 637.7 496.6Z" />
	<path id="Layer" class="shp8" d="M688.1 578.5L687.6 578C688.9 576.7 688.9 574.7 687.6 573.4L688.1 572.9C689.4 574.2 691.4 574.2 692.7 572.9L693.2 573.4C691.9 574.7 691.9 576.7 693.2 578L692.7 578.5C691.4 577.2 689.3 577.2 688.1 578.5Z" />
	<path id="Layer" class="shp8" d="M681.1 506.1L680.6 505.6C681.9 504.3 681.9 502.3 680.6 501L681.1 500.5C682.4 501.8 684.4 501.8 685.7 500.5L686.2 501C684.9 502.3 684.9 504.3 686.2 505.6L685.7 506.1C684.4 504.8 682.4 504.8 681.1 506.1Z" />
	<path id="Layer" class="shp8" d="M655 544.1L654.5 543.6C655.8 542.3 655.8 540.3 654.5 539L655 538.5C656.3 539.8 658.3 539.8 659.6 538.5L660.1 539C658.8 540.3 658.8 542.3 660.1 543.6L659.6 544.1C658.3 542.8 656.2 542.8 655 544.1Z" />
	<path id="Layer" class="shp8" d="M708.6 453.2L708.1 452.7C709.4 451.4 709.4 449.4 708.1 448.1L708.6 447.6C709.9 448.9 711.9 448.9 713.2 447.6L713.7 448.1C712.4 449.4 712.4 451.4 713.7 452.7L713.2 453.2C712 451.9 709.9 451.9 708.6 453.2Z" />
	<path id="Layer" class="shp3" d="M545 467.7C548.2 463 554.6 461.8 559.3 465L598.8 491.7C603.5 494.9 604.7 501.3 601.5 506C598.3 510.7 591.9 511.9 587.2 508.7L547.8 482C543.1 478.8 541.9 472.4 545 467.7Z" />
	<path id="Layer" class="shp3" d="M544.9 493.6C541.9 492.9 539.5 490.6 538.7 487.6L533.9 469.5L555.4 475.1L554.9 485.8C554.7 491.1 549.9 494.7 544.9 493.6Z" />
	<path id="Layer" class="shp3" d="M590.5 524.6C587.5 523.9 585.1 521.6 584.3 518.6L579.5 500.5L601 506.1L600.5 516.8C600.3 522 595.5 525.7 590.5 524.6Z" />
	<path id="Layer" class="shp16" d="M545 467.7C548.2 463 554.6 461.8 559.3 465L598.8 491.7C603.5 494.9 604.7 501.3 601.5 506C598.3 510.7 591.9 511.9 587.2 508.7L547.8 482C543.1 478.8 541.9 472.4 545 467.7Z" />
	<path id="Layer" class="shp16" d="M544.9 493.6C541.9 492.9 539.5 490.6 538.7 487.6L533.9 469.5L555.4 475.1L554.9 485.8C554.7 491.1 549.9 494.7 544.9 493.6Z" />
	<path id="Layer" class="shp16" d="M590.5 524.6C587.5 523.9 585.1 521.6 584.3 518.6L579.5 500.5L601 506.1L600.5 516.8C600.3 522 595.5 525.7 590.5 524.6Z" />
	<path id="Layer" class="shp3" d="M535.2 461C538.4 456.3 544.8 455.1 549.5 458.3L588.9 485C593.6 488.2 594.8 494.6 591.6 499.3C588.4 504 582 505.2 577.3 502L537.9 475.3C533.2 472.1 532 465.7 535.2 461Z" />
	<path id="Layer" class="shp3" d="M592.2 483.2L597.7 486.9C599 487.8 599.4 489.6 598.5 490.9L598.2 491.3L588 484.4L588.3 484C589.1 482.6 590.9 482.3 592.2 483.2Z" />
	<path id="Layer" class="shp16" d="M598.1 491.3L587.9 484.4L588.2 484C588.2 483.9 588.3 483.8 588.4 483.7L598.6 490.6C598.5 490.7 598.5 490.8 598.4 490.9L598.1 491.3Z" />
	<path id="Layer" class="shp3" d="M553.4 456.9L558.9 460.6C560.2 461.5 560.6 463.3 559.7 464.6L559.4 465L549.2 458.1L549.5 457.7C550.4 456.4 552.1 456 553.4 456.9Z" />
	<path id="Layer" class="shp3" d="M553.4 456.9L558.9 460.6C560.2 461.5 560.6 463.3 559.7 464.6L559.4 465L549.2 458.1L549.5 457.7C550.4 456.4 552.1 456 553.4 456.9Z" />
	<path id="Layer" class="shp16" d="M559.7 464.6L559.4 465L549.2 458.1L549.5 457.7C549.5 457.6 549.6 457.5 549.7 457.4L559.9 464.3C559.8 464.4 559.8 464.5 559.7 464.6Z" />
	<path id="Layer" class="shp16" d="M559.6 464.6L559.3 465L549.1 458.1L557.2 463.6L557.5 463.2C558.4 461.9 558.1 460.2 556.9 459.3L558.9 460.6C560.3 461.5 560.6 463.3 559.6 464.6Z" />
	<path id="Layer" class="shp3" d="M753.3 433.7L747.9 461.3L710.9 465L715.9 433L726.4 418.7L753.3 433.7Z" />
	<path id="Layer" class="shp11" d="M582.7 408L534.1 391.9L546 434.5L567.7 456.1C568.2 456.8 568.1 457.7 567.4 458.3C565.1 460.1 561.8 460.2 559.4 458.5L556.4 456.4C553.2 454.1 548.7 454.9 546.5 458.2L541.7 466C540.8 467.5 540.5 469.3 540.9 471L544.1 485.4C544.4 486.8 543.4 488.2 541.9 488.3C540.7 488.4 539.7 487.6 539.4 486.5L538.2 481.8L536.6 481.8C535.3 481.8 534.2 481.1 533.6 479.9L526.9 466.4C526.5 465.6 526.4 464.7 526.5 463.9L529.4 442.7L499.6 375.8C496.1 368 502.8 359.4 511.2 360.9L582.9 373.6L582.9 408L582.7 408Z" />
	<path id="Layer" class="shp13" d="M536.7 481.7L534.7 471.7C534.6 471.3 534.9 470.9 535.3 470.8C535.7 470.7 536.1 471 536.2 471.4L538.2 481.7L536.7 481.7Z" />
	<path id="Layer" class="shp13" d="M530.8 474.2L529.9 469.7C529.8 469.3 530.1 468.9 530.5 468.9C530.9 468.8 531.3 469.1 531.4 469.5L533.1 478.8L530.8 474.2Z" />
	<path id="Layer" class="shp12" d="M621.6 414.6L617.3 421.2L582.7 408L582.7 397.6L620.4 410.8C622 411.3 622.6 413.2 621.6 414.6Z" />
	<path id="Layer" class="shp11" d="M647.9 503.7L638.1 521L617.5 514.1L598.6 516.5C594.1 517.1 589.6 516.4 585.6 514.4L574.8 509.1L596.9 508.3L585.8 512.5L568.4 507.1C567.4 506.8 566.7 505.8 566.7 504.8C566.7 503.4 567.9 502.3 569.3 502.4L584.2 503.6C584.9 503.7 585.5 503.5 586.1 503.2L599.1 495.9C600.3 495.2 601.1 493.9 601.2 492.5C601.2 491.2 600.7 489.9 599.7 489.1L595.9 485.9C593.9 484.2 593.1 481.4 594 478.8C594.3 477.9 595.2 477.5 596 477.9L608.3 483.5C609.5 484 610.5 484.8 611.3 485.8L621.4 498.3L647.9 503.7Z" />
	<path id="Layer" class="shp13" d="M567.2 458.5C564.3 460.7 561.3 460.2 558.8 458.4L556.2 456.5C553 454.3 548.5 455.1 546.3 458.3L541.3 466.5C540.1 468.7 540.7 471 540.7 471L540.7 471.1C540.9 471.7 541.6 474.9 541.6 474.9L544 485.4L544 485.5C544.2 486.4 543.9 487.2 543.2 487.8C543 488 542.7 488.2 542.4 488.3C542 488.5 541.5 488.5 540.9 488.3C540.1 487.9 539.5 487.2 539.3 486.3L538.2 481.9L536.6 481.9C535.3 481.9 534.2 481.1 533.6 480L526.9 466.5C526.5 465.8 526.4 464.9 526.5 464L528.1 467.2C528.4 467.9 529.1 468.3 529.9 468.3C530.5 468.3 531.1 468.6 531.4 469.2L531.5 469.3C532 470.3 533 470.9 534.1 470.9L535.4 470.9L536.6 471.5C537.4 471.9 538.5 471.6 539 470.8C538.5 467.2 539.2 465.3 541.5 462.2L545.9 455.7C548.8 451.8 554.4 451 558.2 454.2L562.2 457.5C563.7 458.7 565.7 459 567.2 458.5Z" />
	<path id="Layer" class="shp13" d="M582.6 397.5L582.6 407.9L535.6 392.4L534.1 391.9L531.5 382.6C531.4 382.5 529.8 375.8 529.8 375.8C529.7 375.3 530 374.9 530.5 374.9C530.8 374.9 531.1 375.1 531.2 375.4L532.9 381.9L582.7 397.5L582.6 397.5Z" />
	<path id="Layer" class="shp12" d="M717.4 443.2L705.7 505.8C702.1 526.1 702.7 546.9 707.4 566.9L708.7 572.3C711.4 583.7 699 592.7 689 586.6L658.1 567.9C655.1 566.1 652.1 564.4 649 562.9C669.3 552.9 680.3 530.2 675 507.8L671.7 493.6C671.3 492 672.9 490.6 674.5 491.2C674.5 491.2 686.2 496.2 696.2 490.1C700.5 487.5 703.8 481.2 704.9 476.3L713.6 442.4C713.8 441.4 714.8 440.7 715.9 440.9C716.9 441.1 717.7 442.1 717.4 443.2Z" />
	<path id="Layer" class="shp11" d="M747.9 461.3L730 532.6C727.6 542.1 717.7 547.5 708.4 544.4L617.5 513.9L621.4 498.3L701.9 511.3L713 464.8L747.9 461.3Z" />
	<path id="Layer" class="shp13" d="M747.8 461.3L729.9 532.6C727.5 542.1 717.6 547.5 708.3 544.4L705.4 543.4C712.9 543.4 719.7 538.3 721.6 530.7L736.7 470.4C737.1 468.8 736 467.2 734.3 467L713 464.8L747.8 461.3Z" />
	<path id="Layer" class="shp13" d="M706.2 512.1L701.9 511.4L703.5 504.5L707.5 509.8C708.3 510.8 707.5 512.3 706.2 512.1Z" />
	<path id="Layer" class="shp8" d="M652.2 420.2L651.7 419.7C653 418.4 653 416.4 651.7 415.1L652.2 414.6C653.5 415.9 655.5 415.9 656.8 414.6L657.3 415.1C656 416.4 656 418.4 657.3 419.7L656.8 420.2C655.5 418.9 653.5 418.9 652.2 420.2Z" />
	<path id="Layer" class="shp8" d="M668.4 460.2L667.9 459.7C669.2 458.4 669.2 456.4 667.9 455.1L668.4 454.6C669.7 455.9 671.7 455.9 673 454.6L673.5 455.1C672.2 456.4 672.2 458.4 673.5 459.7L673 460.2C671.8 458.9 669.7 458.9 668.4 460.2Z" />
	<path id="Layer" class="shp8" d="M744 434.5L743.5 434C744.8 432.7 744.8 430.7 743.5 429.4L744 428.9C745.3 430.2 747.3 430.2 748.6 428.9L749.1 429.4C747.8 430.7 747.8 432.7 749.1 434L748.6 434.5C747.3 433.2 745.3 433.2 744 434.5Z" />
	<path id="Layer" class="shp8" d="M615.2 448.2L614.7 447.7C616 446.4 616 444.4 614.7 443.1L615.2 442.6C616.5 443.9 618.5 443.9 619.8 442.6L620.3 443.1C619 444.4 619 446.4 620.3 447.7L619.8 448.2C618.5 446.9 616.4 446.9 615.2 448.2Z" />
	<path id="Layer" class="shp8" d="M602.9 544.1L602.4 543.6C603.7 542.3 603.7 540.3 602.4 539L602.9 538.5C604.2 539.8 606.2 539.8 607.5 538.5L608 539C606.7 540.3 606.7 542.3 608 543.6L607.5 544.1C606.2 542.8 604.2 542.8 602.9 544.1Z" />
	<path id="Layer" class="shp8" d="M612.7 388.9L612.2 388.4C613.5 387.1 613.5 385.1 612.2 383.8L612.7 383.3C614 384.6 616 384.6 617.3 383.3L617.8 383.8C616.5 385.1 616.5 387.1 617.8 388.4L617.3 388.9C616 387.6 613.9 387.6 612.7 388.9Z" />
	<path id="Layer" class="shp8" d="M705.7 404.8L705 404.7C705.3 402.9 704 401.3 702.2 401L702.3 400.3C704.1 400.6 705.7 399.3 706 397.5L706.7 397.6C706.4 399.4 707.7 401 709.5 401.3L709.4 402C707.6 401.7 705.9 403 705.7 404.8Z" />
	<path id="Layer" class="shp12" d="M613.1 468.3C616.3 473.8 622.2 477.1 628.6 477L613.8 480.1L614.1 473.3C614.1 473.3 614.2 470.4 613.1 468.3Z" />
	<path id="Layer" class="shp12" d="M733.2 401.1C749.4 406.4 757.8 424.2 751.5 440L747.8 461.3L738.7 462.2L747.1 428.7C750 417.4 744.1 405.7 733.2 401.1Z" />
	<path id="Layer" class="shp13" d="M586 511.9L585.9 511.9L577.5 510.4L574.8 509L586 510.7L593.2 509.8L593.3 510.9L586 511.9Z" />
	<path id="Layer" class="shp13" d="M598.6 516.5C594.1 517.1 589.6 516.4 585.6 514.4L574.8 509.1L586.1 510.8L590.9 510.1C594.1 514.4 598.6 516.4 598.6 516.5Z" />
	<path id="Layer" class="shp13" d="M585.1 514L591.2 514.9L596.9 513.5L597.3 514.3L590.8 516.1C590.8 516.1 588.6 515.6 587.3 515L585.1 514Z" />
	<path id="Layer" class="shp3" d="M827.3 526.6C824 527.9 820.3 527.3 817.7 525L801.7 511.1L825.5 502.7L831.8 513C834.9 518 832.7 524.5 827.3 526.6Z" />
	<path id="Layer" class="shp16" d="M827.3 526.6C824 527.9 820.3 527.3 817.7 525L801.7 511.1L825.5 502.7L831.8 513C834.9 518 832.7 524.5 827.3 526.6Z" />
	<path id="Layer" class="shp17" d="M804.2 483.8L808.5 509.5L762 516L745.6 513.8C741 513.3 737.3 509.7 736.6 505.2C735.8 500.3 738.6 495.6 743.2 494L750.1 491.6C750.9 491.6 751.6 490.8 751.5 490C751.4 489.4 751.1 488.9 750.6 488.7L742.5 484.8C739.2 483.2 737.7 479.2 739.1 475.8C739.2 475.3 739.7 475.1 740.2 475.2L762.2 478.9C766.5 479.6 770.4 481.8 773.2 485.1L774.2 486.3L804.2 483.8Z" />
	<path id="Layer" class="shp17" d="M838 480.4L836.6 419.6L871.1 446.1L880.8 459.3L879.1 501.5C879 504.4 876.6 506.7 873.6 506.7L782.7 505.6L778.7 486.5L838 480.4Z" />
	<path id="Layer" class="shp13" d="M838 480.4L836.6 419.6L871.1 446.1L880.8 459.3L879.1 501.5C879 504.4 876.6 506.7 873.6 506.7L803.6 505.8C790.9 505.6 779.4 498.1 774.2 486.4L838 480.4Z" />
	<path id="Layer" class="shp17" d="M994.7 361L923.4 453.3L850.6 377.9C851.7 377.2 852.9 376.5 854.2 375.8L877.3 363.8L877.2 363.8L882.9 360.9C884.2 360.3 885.1 359.1 885.3 357.7C885.3 357.3 885.4 356.9 885.3 356.4L884.8 351.9L883.5 341.3C882.5 339 876.4 338.9 875.9 336C873.5 322.7 870.3 310.8 870.3 310.8C870.3 310.8 910.4 275.6 917.6 309.5L919.7 318.3L928.9 348.3C929.4 349.7 930.7 350.7 932.2 350.8L936.5 351L935.9 351.5L968.6 354.8C978.3 355.1 987.1 355.7 994.7 361Z" />
	<path id="Layer" class="shp3" d="M848.7 294.4C848.7 285.95 855.55 279.1 864 279.1C872.45 279.1 879.3 285.95 879.3 294.4C879.3 302.85 872.45 309.7 864 309.7C855.55 309.7 848.7 302.85 848.7 294.4Z" />
	<path id="Layer" class="shp17" d="M911.2 275.9L916.5 305.7C916.5 305.7 919.3 352.3 889.1 352.2C854.3 352.1 861.5 283.4 861.5 283.4L911.2 275.9Z" />
	<path id="Layer" class="shp3" d="M856.2 262.9C861 259.1 865.7 259.3 868.9 260.3C871.1 261 873.5 260 874.5 257.9C876.2 254.4 879.7 249.9 887 248.7C896.5 247.1 901.5 251.7 903.6 254.5C904.5 255.6 905.9 256.3 907.3 256.3C911.7 256.3 921.2 258.4 925.6 267.2C933.3 282.6 924 301.9 924 301.9L916.3 298.4L915.2 300.7L914.7 307.2C914.6 308 914 308.6 913.2 308.6C912.4 308.6 911.6 308 911.6 307.1L911.2 300.4C911.1 299.3 910.2 298.5 909.2 298.6C905.4 298.8 902.1 295.9 901.9 292.1C901.7 288.3 898.4 285.4 894.6 285.6L864 287.3C853.2 287 847 270.4 856.2 262.9Z" />
	<path id="Layer" class="shp13" d="M923 352.8C922.9 352.2 922.8 351.7 922.7 351.1L915.4 318.5C915.2 318.4 915.4 318.2 915.5 318.3C917.4 318.9 919.7 318.2 919.7 318.2L919.7 318.3L928.9 348.3C929.4 349.7 930.7 350.7 932.2 350.8L933.2 350.8L942.1 372.4L917.3 374.8C922.2 368.5 924.3 360.5 923 352.8Z" />
	<path id="Layer" class="shp17" d="M915.1 300.6C915.1 300.6 916.5 294 923.4 296.1C931.3 298.4 932 315.5 919.5 318.1C912.9 319.5 913.8 315.5 914.3 310.2C915.1 300.6 915.1 300.6 915.1 300.6Z" />
	<path id="Layer" class="shp12" d="M924.7 301.5C924.5 301.8 924 302 923.6 301.8C922.6 301.3 921.8 301.2 921.1 301.4C920.4 301.7 919.8 302.3 919.4 303.3C918.8 304.7 918.8 306.9 918.9 307.3L919 308.8C919 309.3 918.7 309.7 918.3 309.7C917.8 309.7 917.4 309.4 917.4 309L917.3 307.5C917.2 305.8 917.4 304.1 918 302.7C918.6 301.3 919.5 300.4 920.6 300C921.7 299.6 923 299.8 924.4 300.5C924.8 300.7 924.9 301.1 924.7 301.5Z" />
	<path id="Layer" class="shp17" d="M862.3 288.5C861.3 288.4 859.4 287.9 857.6 287C857.3 286.9 857.1 286.4 857.3 286.1C857.4 285.8 857.9 285.6 858.2 285.8C859.9 286.6 861.6 287 862.5 287.2C863 287.3 863.4 287.3 863.9 287.3L867.5 287.2C867.9 287.2 868.2 287.5 868.2 287.9C868.2 288.3 867.9 288.6 867.5 288.6L863.9 288.7C863.4 288.7 862.8 288.7 862.3 288.5Z" />
	<g id="Layer" style="opacity: 0.302">
		<path id="Layer" class="shp12" d="M883.8 337.9C883.8 337.4 884.2 337 884.7 337C887.4 336.9 888.8 336.8 888.8 336.8C889.3 336.8 889.8 337.2 889.8 337.7C889.8 338.2 889.4 338.7 888.9 338.7C888.9 338.7 887.5 338.8 884.8 338.9L884.7 338.9C884.3 338.9 883.9 338.5 883.8 337.9Z" />
	</g>
	<g id="Layer" style="opacity: 0.302">
		<path id="Layer" class="shp12" d="M894.1 333.9C894.1 334.4 893.7 334.8 893.2 334.8C893 334.8 892.9 334.8 892.7 334.7C890.5 333.1 886.2 331.7 879.5 335.9C879.1 336.2 878.6 336 878.3 335.6C878 335.2 878.2 334.7 878.6 334.4C879.8 333.6 881 333 882.1 332.5C887.6 330.2 891.5 331.7 893.7 333.2C894 333.4 894.1 333.6 894.1 333.9Z" />
	</g>
	<path id="Layer" class="shp3" d="M887.6 313.3C887.6 311.81 888.81 310.6 890.3 310.6C891.79 310.6 893 311.81 893 313.3C893 314.79 891.79 316 890.3 316C888.81 316 887.6 314.79 887.6 313.3Z" />
	<path id="Layer" class="shp5" d="M888.4 313.9C888.4 313.57 888.67 313.3 889 313.3C889.33 313.3 889.6 313.57 889.6 313.9C889.6 314.23 889.33 314.5 889 314.5C888.67 314.5 888.4 314.23 888.4 313.9Z" />
	<path id="Layer" class="shp3" d="M865.9 316.1C865.9 314.61 867.11 313.4 868.6 313.4C870.09 313.4 871.3 314.61 871.3 316.1C871.3 317.59 870.09 318.8 868.6 318.8C867.11 318.8 865.9 317.59 865.9 316.1Z" />
	<path id="Layer" class="shp5" d="M866.8 316.8C866.8 316.47 867.07 316.2 867.4 316.2C867.73 316.2 868 316.47 868 316.8C868 317.13 867.73 317.4 867.4 317.4C867.07 317.4 866.8 317.13 866.8 316.8Z" />
	<g id="Layer" style="opacity: 0.302">
		<path id="Layer" class="shp12" d="M876.6 325.5C876.5 323.7 877.9 322.2 879.7 322.1C880.1 322.1 880.5 322.5 880.5 322.9C880.5 323.3 880.1 323.7 879.7 323.7C878.8 323.8 878 324.6 878.1 325.5C878.2 326.4 879 327.2 879.9 327.1L883.6 326.9C884 326.9 884.4 327.3 884.4 327.7C884.4 328.1 884 328.5 883.6 328.5L879.9 328.7C878.1 328.8 876.5 327.5 876.6 325.5Z" />
	</g>
	<path id="Layer" fill-rule="evenodd" class="shp3" d="M859.9 310L871.8 308.5L873.4 308.3L883.9 307L884 307L897.5 305.3C899.7 305.1 901.7 306.6 902 308.8L902.4 311.9C903.1 317.8 898.9 323.2 893 324C887.1 324.7 881.7 320.5 880.9 314.6L880.5 311.5C880.4 310.6 880.6 309.7 881 309L876.8 309.5C877.4 310.1 877.8 310.9 877.9 311.8L878.3 314.9C879 320.8 874.8 326.2 868.9 327C863 327.7 857.6 323.5 856.8 317.6L856.4 314.5C856.2 312.3 857.7 310.3 859.9 310ZM882 311.2L882.4 314.3C883 319.4 887.7 322.9 892.7 322.3C897.8 321.7 901.3 317 900.7 312L900.3 308.9C900.1 307.6 898.9 306.6 897.6 306.8L884.1 308.5C882.8 308.7 881.9 309.9 882 311.2ZM858.4 317.4C859 322.5 863.7 326 868.7 325.4C873.8 324.8 877.3 320.1 876.7 315.1L876.3 312C876.1 310.7 874.9 309.7 873.6 309.9L872 310.1L860.1 311.6C858.8 311.8 857.8 313 858 314.3L858.4 317.4Z" />
	<path id="Layer" class="shp18" d="M1036.8 540.5L1000.9 609.7L816.2 609.6L797.9 541.2L1036.8 540.5Z" />
	<path id="Layer" class="shp15" d="M1036.8 540.5L1000.9 609.7L816.2 609.6L803.1 560.6L1036.8 540.5Z" />
	<path id="Layer" class="shp8" d="M933.2 350.8L972.7 353.7C993.9 355.3 1011.5 370.4 1016.3 391L1054.4 554.8L922.4 556L881.3 460.1L880.3 471.1L837.7 466L836.4 405.2C836.2 392.9 842.9 381.6 853.8 376L875.6 364.8L876.4 366C883.8 376.3 896.7 381 909 377.9L910.4 377.5C922.8 374.3 932 363.6 933.2 350.8Z" />
	<path id="Layer" class="shp8" d="M933.9 350.9L933.2 350.8L933.9 350.9Z" />
	<path id="Layer" class="shp13" d="M1054.4 554.6L922.4 555.8L971.5 552.9C1003.3 551 1027.2 523.1 1024.1 491.4C1019.3 441.5 1013.5 379.2 1016.3 391L1054.4 554.6Z" />
	<path id="Layer" class="shp3" d="M748.6 502.2C748.6 495.8 753.8 490.6 760.2 490.6L814.1 490.6C820.5 490.6 825.7 495.8 825.7 502.2C825.7 508.6 820.5 513.8 814.1 513.8L760.2 513.8C753.8 513.8 748.6 508.6 748.6 502.2Z" />
	<path id="Layer" class="shp16" d="M748.6 502.2C748.6 495.8 753.8 490.6 760.2 490.6L814.1 490.6C820.5 490.6 825.7 495.8 825.7 502.2C825.7 508.6 820.5 513.8 814.1 513.8L760.2 513.8C753.8 513.8 748.6 508.6 748.6 502.2Z" />
	<path id="Layer" class="shp3" d="M764.9 526.6C761.6 527.9 757.9 527.3 755.3 525L739.3 511.1L763.1 502.7L769.4 513C772.4 518 770.3 524.5 764.9 526.6Z" />
	<path id="Layer" class="shp16" d="M764.9 526.6C761.6 527.9 757.9 527.3 755.3 525L739.3 511.1L763.1 502.7L769.4 513C772.4 518 770.3 524.5 764.9 526.6Z" />
	<path id="Layer" class="shp12" d="M749.6 486.8L757.1 486.8C758.9 486.8 760.3 488.3 760.3 490L760.3 490.6L746.3 490.6L746.3 490C746.3 488.2 747.8 486.8 749.6 486.8Z" />
	<path id="Layer" class="shp17" d="M679.9 810.9L728.1 791.2C730.6 790.2 732.3 787.8 732.5 785.1L745.1 571.6C746.1 554.7 760 541.5 776.9 541.3L797.9 541.1L816.2 609.5L794.1 609.5L763.9 787.8C763.8 790.5 764 793.2 764.7 795.8L768.2 809.1C769.3 813.2 766.2 817.3 761.9 817.3L681 817.3C677.5 817.3 676.5 812.3 679.9 810.9Z" />
	<path id="Layer" class="shp17" d="M851.9 540.9L918 540.6L943.5 609.8L886.1 609.8L917.2 768.8L921.5 791L921.4 791C921.7 792.4 922.1 793.8 922.4 795.2L926.6 811.3C927.4 814.3 925.1 817.3 922 817.3L836 817.3C833 817.3 832.2 813.2 835 812.1L883.2 792.2C886.9 790.7 888.8 786.5 887.5 782.7L882.7 768.7L820 585.1C812.9 563.4 829 541 851.9 540.9Z" />
	<path id="Layer" class="shp17" d="M739.3 511.1L752.6 513.1C755.5 513.6 758.3 514.8 760.6 516.6L760.8 516.7C763.7 519 763.1 523.5 759.8 525.1L759.6 525.2C758.1 525.9 756.3 525.6 755.1 524.6L753 522.8L750.6 521.7C749.8 521.3 749.1 520.7 748.7 519.9L748.5 519.4C748.2 518.8 747.7 518.3 747.1 517.9C745.4 516.9 743.9 515.5 742.8 513.9L742.8 513.8L739.3 511.1Z" />
	<path id="Layer" class="shp13" d="M739.3 511.1L752.3 513.1C755.4 513.6 758.3 514.9 760.7 516.8C763.6 519.1 763 523.6 759.7 525.2L759.5 525.3C757.9 526 756.1 525.8 754.8 524.6L753.4 523.4C753.1 523.1 752.8 522.9 752.4 522.8L750.9 522.1C749.8 521.6 748.9 520.7 748.3 519.5C748 518.9 747.5 518.4 747 518.1L746.7 517.9C745.2 517 743.8 515.8 742.8 514.3L742.6 514L739.3 511.1Z" />
	<g id="Layer" style="opacity: 0.149">
		<path id="Layer" class="shp13" d="M992.6 465.5C992.2 465.4 992 464.9 992.1 464.5L1004.6 424.4C1004.7 424 1005.2 423.8 1005.6 423.9C1006 424 1006.2 424.5 1006.1 424.9L993.6 465C993.5 465.4 993.1 465.6 992.8 465.6C992.7 465.6 992.6 465.5 992.6 465.5Z" />
	</g>
	<path id="Layer" class="shp13" d="M937.4 483.2L960.6 388.2C960.7 387.8 961.1 387.5 961.6 387.6C962 387.7 962.3 388.1 962.2 388.6L943.6 465.7C943.6 465.8 943.5 465.9 943.5 466L939.3 483.2L937.4 483.2Z" />
	<path id="Layer" class="shp13" d="M885.2 356.4L884.7 351.9C886.1 352.1 887.6 352.3 889.2 352.3C891.8 352.3 894.6 351.9 897.5 350.8C903 348.5 906.4 344.9 908.5 341.8C908.7 341.5 909.2 341.4 909.5 341.6C909.8 341.8 909.9 342.3 909.7 342.6C907.6 345.8 904.1 349.8 898.4 352.1C898.4 352.1 892.9 356.8 885.3 357.7C885.4 357.2 885.4 356.8 885.2 356.4Z" />
	<path id="Layer" class="shp18" d="M1051.1 540.5L1054.7 556.2C1061.1 584.4 1039.4 611.2 1010.5 610.9L907.4 609.7L876 540.5L1051.1 540.5Z" />
	<path id="Layer" class="shp13" d="M987.4 577.4C1000.6 576.2 1009.6 563.3 1005.9 550.5L1003.3 541.2L1051.1 540.5L1055.5 559.8C1061.5 586.2 1041.3 611.2 1014.2 610.9L907.4 609.7L896.4 585.4L987.4 577.4Z" />
	<path id="Layer" class="shp13" d="M886.2 609.7L921.7 791L926.8 811.4C927.6 814.4 925.3 817.4 922.2 817.4L884.8 817.4C879.4 811.9 875.4 805.1 873.1 797.8L872.8 796.7C876.4 803.3 881.6 808.8 887.9 812.9L888.7 813.4L913.3 813.1C916.4 813.1 918.7 810.1 917.9 807.1L912 783.3L871.9 597.6C870.8 592.4 874.5 587.3 879.9 586.9L896.5 585.6L907.5 609.9L886.2 609.9L886.2 609.7Z" />
	<path id="Layer" class="shp8" d="M828.7 817.3C828.9 811.8 831.5 808.8 836.7 806.9L872.4 795.3C872.4 795.5 875.6 808 884.7 817.3L927.9 817.3C929.3 817.3 930.6 818.4 930.7 819.8C930.8 821.3 929.6 822.5 928.1 822.5L831.2 822.5C829.8 822.5 828.6 821.4 828.6 819.9L828.6 817.3L828.7 817.3Z" />
	<path id="Layer" class="shp9" d="M828.7 817.3C828.9 812.9 830.4 809.7 835.5 807.4C831.8 809.8 834.1 813.1 837.6 812.9C871.5 811.3 875.9 811.3 879.8 810.9C879.7 810.8 879.7 810.7 879.7 810.6C881.2 812.9 882.9 815.2 884.9 817.3L928.3 817.3C929.7 817.3 930.9 818.5 930.9 819.9C930.9 821.3 929.7 822.5 928.3 822.5L831.4 822.5C830 822.5 828.8 821.4 828.8 819.9L828.8 817.3L828.7 817.3Z" />
	<path id="Layer" class="shp15" d="M828.7 816.5L884 816.5L884.7 817.3L828.7 817.3L828.7 816.5Z" />
	<g id="Layer" style="opacity: 0.149">
		<path id="Layer" class="shp13" d="M908.9 808.6C908.5 808.6 908.1 808.2 908.2 807.7C908.2 807.3 908.6 806.9 909.1 807C911.2 807.3 912.9 806.7 913.7 805.3C914.5 804 914.4 802.1 913.4 800.6C913.1 800.2 913.2 799.7 913.6 799.4C914 799.1 914.5 799.2 914.8 799.6C916.1 801.7 916.3 804.2 915.1 806.1C914 807.8 912.2 808.7 909.9 808.7C909.5 808.7 909.2 808.7 908.9 808.6Z" />
	</g>
	<g id="Layer" style="opacity: 0.149">
		<path id="Layer" class="shp13" d="M747.7 808.6C747.3 808.6 746.9 808.2 747 807.7C747 807.3 747.4 806.9 747.9 807C750 807.3 751.7 806.7 752.5 805.3C753.3 804 753.2 802.1 752.2 800.6C751.9 800.2 752 799.7 752.4 799.4C752.8 799.1 753.3 799.2 753.6 799.6C754.9 801.7 755.1 804.2 753.9 806.1C752.8 807.8 751 808.7 748.7 808.7C748.4 808.7 748 808.7 747.7 808.6Z" />
	</g>
	<path id="Layer" class="shp13" d="M857.3 409.4C857.7 409.2 858.2 409.4 858.4 409.8L881.3 460.1L881.2 460.1L880.2 471L866.9 469.4C866.9 469.4 866.9 469.4 868.9 436.8L856.9 410.5C856.7 410 856.9 409.5 857.3 409.4Z" />
	<path id="Layer" class="shp13" d="M989.7 471L1004.2 431L1005.6 498.9C1005.9 512.3 994.3 522.8 981 521.3L943.6 517L989.7 471Z" />
	<path id="Layer" class="shp17" d="M939.3 483.2L946.2 454.9L993.4 460.1L978.4 505.1C975.5 513.8 966.9 519.4 957.8 518.5L845.8 507.6L844.9 484.1L939.3 483.2Z" />
	<path id="Layer" class="shp13" d="M939.2 483.2L946.1 454.9L954.1 455.8L947.1 479.6C946.5 481.7 944.6 483.2 942.4 483.2L939.2 483.2Z" />
	<path id="Layer" class="shp13" d="M750 491.6C750.8 491.5 751.5 490.8 751.4 490C751.4 489.5 751 489 750.5 488.7L742.4 484.8L759.6 488.7C762.8 489.4 763.5 493.6 760.8 495.4L754.3 499.6L742.4 497.2L742.4 494.4L750 491.6Z" />
	<path id="Layer" class="shp3" d="M735.1 502.2C735.1 495.8 740.3 490.6 746.7 490.6L800.6 490.6C807 490.6 812.2 495.8 812.2 502.2C812.2 508.6 807 513.8 800.6 513.8L746.7 513.8C740.3 513.8 735.1 508.6 735.1 502.2Z" />
	<path id="Layer" class="shp17" d="M846.8 495.4L849.1 499.9L845.7 507.5L831.4 516.6C826 520.1 819.8 521 813.6 520C812.3 519.8 811.1 519.3 810 518.6L804.6 515.1C803.7 514.5 804.1 513 805.2 512.9L812.5 512.4C813.8 512.4 815.1 512.1 816.3 511.5C821.2 509.2 824.4 504.3 824.3 498.8C824.2 492.9 820.3 487.7 814.6 486.1L807 483.9C804 483 801.9 480.2 801.9 477.1L801.9 476.7C801.9 475.8 802.7 475.1 803.6 475.2L818.5 476.4C824.2 476.8 830.7 477.9 835 479.6L844.9 484.1L846.8 495.4Z" />
	<path id="Layer" class="shp17" d="M822.2 506.6C822.3 506.5 822.3 506.4 822.4 506.3C822.3 506.4 822.3 506.5 822.2 506.6Z" />
	<path id="Layer" class="shp13" d="M805.3 513.1L812.6 512.6C813.5 512.5 814.3 512.4 815.2 512.1C817.3 512.6 819.8 513.5 823.8 514.4C825 514.7 826.2 514.4 827.2 513.8L842.9 503.6C843.9 503 845 502.7 846.2 502.8L962.7 513.9C967.2 514.3 971.6 513.2 975.2 510.9C971.1 516.1 964.6 519.1 957.7 518.4L845.7 507.5L831.4 516.6C825.9 520 819.8 521 813.6 520C812.3 519.8 811.1 519.3 810 518.6L804.6 515.1C803.8 514.6 804.2 513.2 805.3 513.1Z" />
	<path id="Layer" class="shp3" d="M802.5 486.8L810 486.8C811.8 486.8 813.2 488.3 813.2 490L813.2 490.6L799.2 490.6L799.2 490C799.3 488.2 800.7 486.8 802.5 486.8Z" />
	<path id="Layer" class="shp3" d="M749.6 486.8L757.1 486.8C758.9 486.8 760.3 488.3 760.3 490L760.3 490.6L746.3 490.6L746.3 490C746.3 488.2 747.8 486.8 749.6 486.8Z" />
	<path id="Layer" class="shp13" d="M873.5 372.6L869.4 368.2L870.6 367.1L874.7 371.5C883.8 381.3 897 385.4 910 382.3C923.1 379.2 933 369.7 936.7 356.8L938.3 351L939.9 351.1L938.2 357.2C934.3 370.6 923.9 380.6 910.3 383.8C907.3 384.6 904.3 384.9 901.3 384.9C890.8 384.9 880.8 380.6 873.5 372.6Z" />
	<path id="Layer" class="shp13" d="M752.5 522.5L761.8 518L762.5 519.7L753.8 523.8L752.5 522.5Z" />
	<path id="Layer" class="shp13" d="M759 515.6L748.6 519.2L747 517.8L757.5 514.7L759 515.6Z" />
	<path id="Layer" class="shp16" d="M760.4 490L760.4 490.6L746.4 490.6L746.4 490C746.4 489.9 746.4 489.6 746.4 489.5L760.3 489.4C760.3 489.5 760.3 489.9 760.4 490Z" />
	<path id="Layer" class="shp16" d="M813.3 490L813.3 490.6L799.3 490.6L799.3 490C799.3 489.9 799.3 489.6 799.3 489.5L813.2 489.4C813.2 489.5 813.3 489.9 813.3 490Z" />
	<path id="Layer" class="shp13" d="M764 787.8C763.8 790.5 764.1 793.2 764.8 795.8L768.3 809.1C769.4 813.3 766.3 817.3 762 817.3L681.2 817.3C678 817.3 676.9 813.3 679 811.5L722.1 811.4C719.6 807.8 716.6 802.7 714.9 796.6C714.9 796.6 719.7 805 727 811.4L750.8 811.4C755.1 811.4 758.2 807.3 757.1 803.2C757.1 803.2 756.1 784.7 756.2 782L780.6 604.2C781 600.9 783.7 598.4 787 598.2L800 597.4C803 597.2 805.2 594.5 804.8 591.5L798 541.1L812.1 593.8L816.3 609.5L794.2 609.5L764 787.8Z" />
	<path id="Layer" class="shp8" d="M670.7 817.3C670.9 811.8 673.5 808.8 678.7 806.9L714.4 795.3C714.4 795.5 717.6 808 726.7 817.3L770 817.3C771.4 817.3 772.7 818.4 772.8 819.8C772.9 821.3 771.7 822.5 770.2 822.5L673.3 822.5C671.9 822.5 670.7 821.4 670.7 819.9L670.7 817.3L670.7 817.3Z" />
	<path id="Layer" class="shp9" d="M670.7 817.3C670.9 812.9 672.4 809.7 677.5 807.4C673.8 809.8 676.1 813.1 679.6 812.9C713.5 811.3 717.9 811.3 721.8 810.9C721.7 810.8 721.7 810.7 721.7 810.6C723.2 812.9 724.9 815.2 726.9 817.3L770.3 817.3C771.7 817.3 772.9 818.5 772.9 819.9C772.9 821.3 771.7 822.5 770.3 822.5L673.4 822.5C672 822.5 670.8 821.4 670.8 819.9L670.8 817.3L670.7 817.3Z" />
	<path id="Layer" class="shp15" d="M670.8 816.5L726 816.5L726.8 817.3L670.8 817.3L670.8 816.5Z" />
	<path id="Layer" class="shp10" d="M1195.3 822.5L1048 822.5C1042.1 822.5 1037.3 817.7 1037.3 811.8L1037.3 517.4C1037.3 511.5 1042.1 506.7 1048 506.7L1184.6 506.7C1190.5 506.7 1195.3 511.5 1195.3 517.4L1195.3 822.5Z" />
	<path id="Layer" class="shp1" d="M1050 507.3C1050 507 1050.2 506.7 1050.5 506.7L1182.7 506.7C1182.9 506.7 1183.1 507 1183.1 507.3C1183.1 507.6 1183 507.9 1182.7 507.9L1050.5 507.9C1050.3 507.9 1050.1 507.6 1050 507.3Z" />
	<path id="Layer" class="shp1" d="M1069.5 822.5L999.1 822.5L999.1 517.4C999.1 511.5 1003.9 506.7 1009.8 506.7L1058.8 506.7C1064.7 506.7 1069.5 511.5 1069.5 517.4L1069.5 822.5Z" />
	<path id="Layer" class="shp10" d="M997.7 708L997.7 581.9C997.7 581.6 998 581.4 998.4 581.4C998.8 581.4 999.1 581.6 999.1 581.9L999.1 707.9C999.1 708.2 998.8 708.4 998.4 708.4C998 708.4 997.7 708.2 997.7 708Z" />
	<path id="Layer" class="shp9" d="M421.13 680.07L421.13 609.67L427.74 609.67L427.74 680.07L421.13 680.07Z" />
	<path id="Layer" class="shp3" d="M245.6 663L234.4 663L234.4 623.1L245.6 623.1L245.6 663Z" />
	<path id="Layer" class="shp18" d="M188.26 617.93L238.37 617.93L238.37 663.03L188.26 663.03L188.26 617.93Z" />
	<path id="Layer" class="shp3" d="M245.9 669L245.9 661.8L297.3 661.8C301.3 661.8 304.5 665 304.5 669L245.9 669L245.9 669Z" />
	<path id="Layer" class="shp18" d="M133.6 661.8L253.1 661.8C257.1 661.8 260.3 665 260.3 669L126.4 669C126.4 665 129.6 661.7 133.6 661.8Z" />
	<path id="Layer" class="shp3" d="M407.4 622.7L381.8 622.7C378.9 622.7 376.5 620.3 376.5 617.4L376.5 395.7C376.5 392.8 378.9 390.4 381.8 390.4L407.4 390.4C410.3 390.4 412.7 392.8 412.7 395.7L412.7 617.4C412.8 620.3 410.4 622.7 407.4 622.7Z" />
	<path id="Layer" class="shp18" d="M28.4 617.4L28.4 395.7C28.4 392.8 30.8 390.4 33.7 390.4L400.2 390.4C403.1 390.4 405.5 392.8 405.5 395.7L405.5 617.4C405.5 620.3 403.1 622.7 400.2 622.7L33.7 622.7C30.7 622.7 28.3 620.3 28.4 617.4Z" />
	<path id="Layer" class="shp3" d="M131.4 570.8L131.4 485.5C131.4 482.9 133.5 480.8 136.1 480.8L303.9 480.8C306.5 480.8 308.6 482.9 308.6 485.5L308.6 570.8C308.6 573.4 306.5 575.5 303.9 575.5L136.1 575.5C133.5 575.5 131.4 573.4 131.4 570.8Z" />
	<path id="Layer" class="shp2" d="M125.3 570.8L125.3 485.5C125.3 482.9 127.4 480.8 130 480.8L297.8 480.8C300.4 480.8 302.5 482.9 302.5 485.5L302.5 570.8C302.5 573.4 300.4 575.5 297.8 575.5L130 575.5C127.4 575.5 125.3 573.4 125.3 570.8Z" />
	<path id="Layer" class="shp9" d="M125.3 570.8L125.3 485.5C125.3 482.9 127.4 480.8 130 480.8L297.8 480.8C300.4 480.8 302.5 482.9 302.5 485.5L302.5 570.8C302.5 573.4 300.4 575.5 297.8 575.5L130 575.5C127.4 575.5 125.3 573.4 125.3 570.8Z" />
	<path id="Layer" class="shp19" d="M152.1 498C152.3 499.2 153.3 500.1 154.5 500.1L279.4 500.1C280.6 500.1 281.6 499.2 281.8 498C282.4 498.5 282.7 499.1 282.7 499.9C282.7 501.3 281.6 502.4 280.2 502.4L153.6 502.4C152.2 502.4 151.1 501.3 151.1 499.9C151.1 499.1 151.5 498.5 152.1 498Z" />
	<path id="Layer" class="shp19" d="M152.1 507.4C152.3 508.6 153.3 509.5 154.5 509.5L279.4 509.5C280.6 509.5 281.6 508.6 281.8 507.4C282.4 507.9 282.7 508.5 282.7 509.3C282.7 510.7 281.6 511.8 280.2 511.8L153.6 511.8C152.2 511.8 151.1 510.7 151.1 509.3C151.1 508.6 151.5 507.9 152.1 507.4Z" />
	<path id="Layer" class="shp19" d="M152.1 516.9C152.3 518.1 153.3 519 154.5 519L279.4 519C280.6 519 281.6 518.1 281.8 516.9C282.4 517.4 282.7 518 282.7 518.8C282.7 520.2 281.6 521.3 280.2 521.3L153.6 521.3C152.2 521.3 151.1 520.2 151.1 518.8C151.1 518 151.5 517.3 152.1 516.9Z" />
	<path id="Layer" class="shp19" d="M152.1 526.3C152.3 527.5 153.3 528.4 154.5 528.4L279.4 528.4C280.6 528.4 281.6 527.5 281.8 526.3C282.4 526.8 282.7 527.4 282.7 528.2C282.7 529.6 281.6 530.7 280.2 530.7L153.6 530.7C152.2 530.7 151.1 529.6 151.1 528.2C151.1 527.4 151.5 526.8 152.1 526.3Z" />
	<path id="Layer" class="shp19" d="M152.1 535.7C152.3 536.9 153.3 537.8 154.5 537.8L279.4 537.8C280.6 537.8 281.6 536.9 281.8 535.7C282.4 536.2 282.7 536.8 282.7 537.6C282.7 539 281.6 540.1 280.2 540.1L153.6 540.1C152.2 540.1 151.1 539 151.1 537.6C151.1 536.9 151.5 536.2 152.1 535.7Z" />
	<path id="Layer" class="shp19" d="M151.1 564L151.1 557.8C151.1 556.6 152 555.7 153.2 555.7L170.2 555.7C171.4 555.7 172.3 556.6 172.3 557.8L172.3 564C172.3 565.2 171.4 566.1 170.2 566.1L153.2 566.1C152.1 566.1 151.1 565.2 151.1 564Z" />
	<path id="Layer" class="shp19" d="M260.5 564L260.5 557.8C260.5 556.6 261.4 555.7 262.6 555.7L279.6 555.7C280.8 555.7 281.7 556.6 281.7 557.8L281.7 564C281.7 565.2 280.8 566.1 279.6 566.1L262.6 566.1C261.5 566.1 260.5 565.2 260.5 564Z" />
	<path id="Layer" class="shp2" d="M122.9 813.9L77.1 813.9C39.5 813.9 9.1 783.5 9.1 745.9C9.1 708.3 39.5 677.9 77.1 677.9L122.9 677.9C85.3 677.9 54.9 708.3 54.9 745.9C54.9 783.5 85.3 813.9 122.9 813.9Z" />
	<path id="Layer" class="shp18" d="M469.3 746C469.3 788.5 434.8 823 392.3 823L349.3 823C391.8 823 426.3 788.5 426.3 746C426.3 703.5 391.8 669 349.3 669L392.3 669C434.8 669 469.3 703.4 469.3 746Z" />
	<path id="Layer" class="shp12" d="M122.9 813.9L77.1 813.9C39.5 813.9 9.1 783.5 9.1 745.9C9.1 708.3 39.5 677.9 77.1 677.9L122.9 677.9C85.3 677.9 54.9 708.3 54.9 745.9C54.9 783.5 85.3 813.9 122.9 813.9Z" />
	<path id="Layer" class="shp3" d="M179.8 622.7L245.6 622.7L245.6 629.6L179.8 624.5L179.8 622.7Z" />
	<path id="Layer" class="shp10" d="M420.2 750.6L34.6 750.6C32.9 750.6 31.5 749.2 31.5 747.5L31.5 744.3C31.5 742.6 32.9 741.2 34.6 741.2L420.2 741.2L420.2 750.6Z" />
	<path id="Layer" class="shp9" d="M420.1 741.3C420.2 742.9 420.3 744.4 420.3 746C420.3 747.6 420.2 749.2 420.1 750.7L411.1 750.7C411.2 749.1 411.3 747.6 411.3 746C411.3 744.4 411.2 742.8 411.1 741.3L420.1 741.3Z" />
	<path id="Layer" fill-rule="evenodd" class="shp2" d="M426.3 746C426.3 788.5 391.8 823 349.3 823L77.1 823C34.6 823 0.1 788.5 0.1 746C0.1 703.5 34.6 669 77.1 669L349.3 669C391.8 669 426.3 703.4 426.3 746ZM349.3 677.9L77.1 677.9C39.5 677.9 9.1 708.3 9.1 745.9C9.1 783.5 39.5 813.9 77.1 813.9L349.3 813.9C386.9 813.9 417.3 783.5 417.3 745.9C417.3 708.4 386.9 677.9 349.3 677.9Z" />
	<path id="Layer" class="shp8" d="M179.4 713L289.9 713C292 713 293.7 714.7 293.7 716.8L293.7 737.4C293.7 739.5 292 741.2 289.9 741.2L179.4 741.2C177.3 741.2 175.6 739.5 175.6 737.4L175.6 716.8C175.5 714.7 177.3 713 179.4 713Z" />
	<path id="Layer" class="shp8" d="M255.5 713L322.9 713C325 713 326.7 714.7 326.7 716.8L326.7 737.4C326.7 739.5 325 741.2 322.9 741.2L255.5 741.2C253.4 741.2 251.7 739.5 251.7 737.4L251.7 716.8C251.7 714.7 253.4 713 255.5 713Z" />
	<path id="Layer" class="shp14" d="M179.4 713L289.9 713C292 713 293.7 714.7 293.7 716.8L293.7 737.4C293.7 739.5 292 741.2 289.9 741.2L179.4 741.2C177.3 741.2 175.6 739.5 175.6 737.4L175.6 716.8C175.5 714.7 177.3 713 179.4 713Z" />
	<path id="Layer" class="shp8" d="M252.5 728.6C252.5 731.1 250.5 733.1 248 733.1L246.3 733.1L246.3 732.8C244.7 732.1 243.5 730.5 243.5 728.6C243.5 726.7 244.6 725.1 246.3 724.4L246.3 724.1L248 724.1C250.5 724.1 252.5 726.1 252.5 728.6Z" />
	<path id="Layer" class="shp5" d="M246.3 733.2C243.8 733.2 241.8 731.2 241.8 728.7C241.8 726.2 243.8 724.2 246.3 724.2C248.8 724.2 250.8 726.2 250.8 728.7C250.8 731.2 248.8 733.2 246.3 733.2Z" />
	<path id="Layer" class="shp8" d="M246.3 731.1C245 731.1 243.9 730 243.9 728.7C243.9 727.4 245 726.3 246.3 726.3C247.6 726.3 248.7 727.4 248.7 728.7C248.7 730 247.6 731.1 246.3 731.1Z" />
	<path id="Layer" class="shp8" d="M267.8 728.6C267.8 731.1 265.8 733.1 263.3 733.1L261.6 733.1L261.6 732.8C260 732.1 258.8 730.5 258.8 728.6C258.8 726.7 259.9 725.1 261.6 724.4L261.6 724.1L263.3 724.1C265.8 724.1 267.8 726.1 267.8 728.6Z" />
	<path id="Layer" class="shp5" d="M261.6 733.2C259.1 733.2 257.1 731.2 257.1 728.7C257.1 726.2 259.1 724.2 261.6 724.2C264.1 724.2 266.1 726.2 266.1 728.7C266.2 731.2 264.1 733.2 261.6 733.2Z" />
	<path id="Layer" class="shp8" d="M261.6 731.1C260.3 731.1 259.2 730 259.2 728.7C259.2 727.4 260.3 726.3 261.6 726.3C262.9 726.3 264 727.4 264 728.7C264 730 263 731.1 261.6 731.1Z" />
	<path id="Layer" class="shp8" d="M283.8 728.6C283.8 731.1 281.8 733.1 279.3 733.1L277.6 733.1L277.6 732.8C276 732.1 274.8 730.5 274.8 728.6C274.8 726.7 275.9 725.1 277.6 724.4L277.6 724.1L279.3 724.1C281.8 724.1 283.8 726.1 283.8 728.6Z" />
	<path id="Layer" class="shp5" d="M277.6 733.2C275.1 733.2 273.1 731.2 273.1 728.7C273.1 726.2 275.1 724.2 277.6 724.2C280.1 724.2 282.1 726.2 282.1 728.7C282.1 731.2 280.1 733.2 277.6 733.2Z" />
	<path id="Layer" class="shp8" d="M277.6 731.1C276.3 731.1 275.2 730 275.2 728.7C275.2 727.4 276.3 726.3 277.6 726.3C278.9 726.3 280 727.4 280 728.7C280 730 278.9 731.1 277.6 731.1Z" />
	<path id="Layer" class="shp3" d="M246.4 730.9L241.5 730.9C232.6 730.9 225.3 723.6 225.3 714.7L225.3 702.1C225.3 690.5 234.8 681 246.4 681L249.6 681C256.1 681 261.5 675.7 261.5 669.1L261.5 622.6C266.1 622.6 261.5 622.6 266.1 622.6L266.1 669.1C266.1 678.2 258.7 685.5 249.7 685.5L246.5 685.5C237.4 685.5 230 692.9 230 702L230 714.6C230 721 235.2 726.2 241.6 726.2L246.5 726.2C247.8 726.2 248.8 727.2 248.8 728.5C248.8 729.8 247.6 730.9 246.4 730.9Z" />
	<path id="Layer" class="shp3" d="M261.7 731.1L256.8 731.1C247.9 731.1 240.6 723.8 240.6 714.9L240.6 702.3C240.6 690.7 250.1 681.2 261.7 681.2L264.9 681.2C271.4 681.2 276.8 675.9 276.8 669.3L276.8 622.8C281.4 622.8 276.8 622.8 281.4 622.8L281.4 669.3C281.4 678.4 274 685.7 265 685.7L261.8 685.7C252.7 685.7 245.3 693.1 245.3 702.2L245.3 714.8C245.3 721.2 250.5 726.4 256.9 726.4L261.8 726.4C263.1 726.4 264.1 727.4 264.1 728.7C264 730 263 731.1 261.7 731.1Z" />
	<path id="Layer" class="shp2" d="M1268.8 646.6L1182.6 646.6C1181.1 646.6 1179.9 645.4 1179.9 643.9C1179.9 642.4 1181.1 641.2 1182.6 641.2L1268.8 641.2C1270.3 641.2 1271.5 642.4 1271.5 643.9C1271.5 645.4 1270.3 646.6 1268.8 646.6Z" />
	<path id="Layer" class="shp2" d="M1265.2 646.6L1279.5 822.4L1276.7 822.4L1255.2 646.6L1265.2 646.6Z" />
	<path id="Layer" class="shp2" d="M1195.7 646.6L1174.3 822.4L1171.4 822.4L1185.7 646.6L1195.7 646.6Z" />
	<path id="Layer" class="shp18" d="M1195.7 646.6L1174.3 822.4L1173 822.4L1190.2 650L1185.3 650L1185.7 646.6L1195.7 646.6Z" />
	<path id="Layer" class="shp18" d="M1269.1 714L1266.6 714L1255.2 646.6L1265.2 646.6L1279.5 822.4L1278.1 822.4L1269.1 714Z" />
	<path id="Layer" class="shp18" d="M1229.3 646.6L1224.5 822.4L1221.6 822.4L1219.3 646.6L1229.3 646.6Z" />
	<path id="Layer" class="shp20" d="M1239.3 597.8C1239.3 597.8 1245.5 547.8 1259.9 520.5" />
	<path id="Layer" class="shp20" d="M1228.8 511.8C1228.8 511.8 1238.6 552 1237.1 579.9" />
	<path id="Layer" class="shp8" d="M1258.6 522.9C1258.6 522.9 1258.7 495.9 1282.3 494.3C1282.4 494.4 1284.3 518.1 1258.6 522.9Z" />
	<path id="Layer" class="shp8" d="M1202.1 517.1C1202.1 517.1 1195.7 491.5 1167.8 498.7C1167.8 498.7 1173.1 517.6 1202.1 517.1Z" />
	<path id="Layer" class="shp8" d="M1232.4 527.7C1232.4 527.7 1240.7 505.9 1221.4 494.4C1221.3 494.4 1212.9 515.8 1232.4 527.7Z" />
	<path id="Layer" class="shp20" d="M1202.1 517.1C1202.1 517.1 1227.8 546.5 1227.8 597.8" />
	<path id="Layer" class="shp20" d="M1247.3 513.1C1241.6 535.7 1239.2 540.6 1235.9 597.8" />
	<path id="Layer" class="shp20" d="M1180.8 481.7C1192.1 486.9 1227.7 524.2 1221.8 596.8" />
	<path id="Layer" class="shp20" d="M1217.4 596.9C1217.4 596.9 1224.8 546.6 1193.7 529.9" />
	<path id="Layer" class="shp20" d="M1240.3 590.2C1240.3 590.2 1243 582.2 1251.6 575.5" />
	<path id="Layer" class="shp20" d="M1243.2 574.6C1243.2 574.6 1260.8 559.1 1269.6 556.5" />
	<path id="Layer" class="shp8" d="M1207.8 542.6C1207.8 542.6 1200.9 516.2 1173.4 522.4C1173.3 522.4 1178 544.9 1207.8 542.6Z" />
	<path id="Layer" class="shp21" d="M1207.8 542.6C1207.8 542.6 1200.9 516.2 1173.4 522.4C1173.3 522.4 1178 544.9 1207.8 542.6Z" />
	<path id="Layer" class="shp8" d="M1221.8 569.6C1221.8 569.6 1217 550.9 1191.9 557.1C1192 557.1 1200.2 575.8 1221.8 569.6Z" />
	<path id="Layer" class="shp8" d="M1238.9 557.5C1238.9 557.5 1241.2 528.1 1271.9 524.5C1271.9 524.4 1273.4 553.2 1238.9 557.5Z" />
	<path id="Layer" class="shp20" d="M1231.9 467.7C1231.9 467.7 1230.7 576.6 1230.5 597.8" />
	<path id="Layer" class="shp8" d="M1236.4 549.6C1236.4 549.6 1210.2 551 1210.2 522C1210.2 522 1235.6 522.3 1236.4 549.6Z" />
	<path id="Layer" class="shp21" d="M1236.4 549.6C1236.4 549.6 1210.2 551 1210.2 522C1210.2 522 1235.6 522.3 1236.4 549.6Z" />
	<path id="Layer" class="shp8" d="M1261.2 560.9C1261.2 560.9 1268.3 540.9 1290.9 546C1290.8 546 1287.1 562.8 1261.2 560.9Z" />
	<path id="Layer" class="shp21" d="M1261.2 560.9C1261.2 560.9 1268.3 540.9 1290.9 546C1290.8 546 1287.1 562.8 1261.2 560.9Z" />
	<path id="Layer" class="shp10" d="M1250.8 603.1L1204.4 603.1L1204.4 597.3L1250.8 597.3L1250.8 603.1Z" />
	<path id="Layer" class="shp10" d="M1244.8 641.2L1210.2 641.2L1207.6 603.1L1247.4 603.1L1244.8 641.2Z" />
	<path id="Layer" class="shp10" d="M1244.8 641.2L1210.2 641.2L1207.6 603.1L1247.4 603.1L1244.8 641.2Z" />
	<path id="Layer" class="shp2" d="M1250.7 603.1L1247.4 603.1L1244.8 641.2L1236.4 641.2L1236.3 604.7L1207.8 604.7L1207.6 603.1L1236.3 603.1L1243.2 603.1L1243.2 597.3L1250.7 597.3L1250.7 603.1Z" />
	<path id="Layer" class="shp8" d="M1231.5 490.2C1231.5 490.2 1218.7 470.8 1235.4 452.2C1235.4 452.2 1246.5 471.1 1231.5 490.2Z" />
	<path id="Layer" class="shp21" d="M1231.5 490.2C1231.5 490.2 1218.7 470.8 1235.4 452.2C1235.4 452.2 1246.5 471.1 1231.5 490.2Z" />
	<path id="Layer" class="shp8" d="M1243.2 529.2C1243.2 529.2 1229.1 499.1 1254.3 480.6C1254.2 480.6 1271.6 507.8 1243.2 529.2Z" />
	<path id="Layer" class="shp21" d="M1243.2 529.2C1243.2 529.2 1229.1 499.1 1254.3 480.6C1254.2 480.6 1271.6 507.8 1243.2 529.2Z" />
	<path id="Layer" class="shp8" d="M1246.6 580.6C1246.6 580.6 1250 567.5 1267.9 570.3C1267.9 570.3 1265 583.6 1246.6 580.6Z" />
	<path id="Layer" class="shp8" d="M1222.1 586.7C1222.1 586.7 1218.2 561.3 1241.4 558.3C1241.4 558.3 1246.9 580.3 1222.1 586.7Z" />
	<path id="Layer" class="shp21" d="M1222.1 586.7C1222.1 586.7 1218.2 561.3 1241.4 558.3C1241.4 558.3 1246.9 580.3 1222.1 586.7Z" />
	<path id="Layer" class="shp8" d="M1174.5 477.9C1174.5 477.9 1188.5 476.5 1191.2 489.9C1191.2 489.8 1178.5 491.4 1174.5 477.9Z" />
	<path id="Layer" class="shp14" d="M1174.5 477.9C1174.5 477.9 1188.5 476.5 1191.2 489.9C1191.2 489.8 1178.5 491.4 1174.5 477.9Z" />
	<path id="Layer" class="shp8" d="M1208.6 476.5C1208.6 476.5 1191.2 494.6 1208.2 514.3C1208.2 514.3 1225.3 495 1208.6 476.5Z" />
	<path id="Layer" class="shp21" d="M1208.6 476.5C1208.6 476.5 1191.2 494.6 1208.2 514.3C1208.2 514.3 1225.3 495 1208.6 476.5Z" />
</svg>